# polySurface15
# 48 vertices, 44 triangles
v -35.863201 156.568298 -22.050842
v -36.535439 163.665741 -20.364334
v -34.916538 161.863297 -21.636642
v -34.670502 159.265335 -22.253830
v -41.905495 163.295441 -17.302643
v -40.987118 153.599899 -19.606369
v -45.410275 158.524506 -16.130493
v -44.217422 161.221649 -16.333496
v -38.175274 154.494446 -21.081680
v -39.093666 164.189972 -18.777954
v -43.545174 154.124237 -18.020020
v -45.164074 155.926682 -16.747711
v -34.551006 156.180283 -19.041458
v -33.358276 158.877563 -19.244629
v -33.604195 161.475357 -18.627258
v -35.223373 163.277847 -17.354935
v -40.593182 162.907486 -14.293274
v -42.905224 160.833862 -13.324295
v -44.098015 158.136749 -13.121109
v -39.674870 153.212128 -16.596985
v -36.863060 154.106659 -18.072479
v -37.781425 163.802185 -15.768570
v -43.851994 155.538818 -13.738480
v -42.233082 153.736359 -15.010605
v -35.223373 163.277847 -17.354935
v -33.604195 161.475357 -18.627258
v -34.916538 161.863297 -21.636642
v -36.535439 163.665741 -20.364334
v -33.358276 158.877563 -19.244629
v -34.670502 159.265335 -22.253830
v -34.551006 156.180283 -19.041458
v -35.863201 156.568298 -22.050842
v -44.098015 158.136749 -13.121109
v -42.905224 160.833862 -13.324295
v -44.217422 161.221649 -16.333496
v -45.410275 158.524506 -16.130493
v -40.593182 162.907486 -14.293274
v -41.905495 163.295441 -17.302643
v -36.863060 154.106659 -18.072479
v -38.175274 154.494446 -21.081680
v -39.674870 153.212128 -16.596985
v -40.987118 153.599899 -19.606369
v -37.781425 163.802185 -15.768570
v -39.093666 164.189972 -18.777954
v -42.233082 153.736359 -15.010605
v -43.545174 154.124237 -18.020020
v -43.851994 155.538818 -13.738480
v -45.164074 155.926682 -16.747711
vt 0.938295 0.917902
vt 0.975595 0.927892
vt 0.961945 0.931552
vt 0.948285 0.927892
vt 0.989245 0.904252
vt 0.938295 0.890592
vt 0.975595 0.880602
vt 0.985585 0.890592
vt 0.934635 0.904252
vt 0.985585 0.917902
vt 0.948285 0.880602
vt 0.961945 0.876942
vt 0.932955 0.920982
vt 0.945205 0.933232
vt 0.961945 0.937722
vt 0.978675 0.933232
vt 0.995415 0.904252
vt 0.990925 0.887512
vt 0.978675 0.875262
vt 0.932955 0.887512
vt 0.928475 0.904252
vt 0.990925 0.920982
vt 0.961945 0.870782
vt 0.945205 0.875262
vt 0.978675 0.933232
vt 0.961945 0.937722
vt 0.961945 0.931552
vt 0.975595 0.927892
vt 0.945205 0.933232
vt 0.948285 0.927892
vt 0.932955 0.920982
vt 0.938295 0.917902
vt 0.978675 0.875262
vt 0.990925 0.887512
vt 0.985585 0.890592
vt 0.975595 0.880602
vt 0.995415 0.904252
vt 0.989245 0.904252
vt 0.928475 0.904252
vt 0.934635 0.904252
vt 0.932955 0.887512
vt 0.938295 0.890592
vt 0.990925 0.920982
vt 0.985585 0.917902
vt 0.945205 0.875262
vt 0.948285 0.880602
vt 0.961945 0.870782
vt 0.961945 0.876942
vn -0.497348 0.155679 -0.853469
vn -0.497339 0.155698 -0.853470
vn -0.497361 0.155681 -0.853461
vn -0.497361 0.155681 -0.853461
vn -0.497351 0.155687 -0.853466
vn -0.497356 0.155675 -0.853465
vn -0.497366 0.155685 -0.853457
vn -0.497364 0.155688 -0.853458
vn -0.497350 0.155672 -0.853469
vn -0.497337 0.155700 -0.853472
vn -0.497380 0.155662 -0.853453
vn -0.497381 0.155662 -0.853453
vn 0.497356 -0.155691 0.853462
vn 0.497376 -0.155696 0.853449
vn 0.497376 -0.155696 0.853449
vn 0.497355 -0.155689 0.853463
vn 0.497350 -0.155686 0.853466
vn 0.497344 -0.155680 0.853471
vn 0.497342 -0.155682 0.853472
vn 0.497350 -0.155689 0.853466
vn 0.497355 -0.155691 0.853463
vn 0.497353 -0.155689 0.853464
vn 0.497323 -0.155702 0.853479
vn 0.497323 -0.155702 0.853479
vn 0.426709 0.901688 -0.069841
vn 0.818654 0.493717 -0.293342
vn 0.833188 0.462092 -0.303759
vn 0.460638 0.883314 -0.087003
vn 0.903499 -0.124676 -0.410056
vn 0.901905 -0.134132 -0.410579
vn 0.694095 -0.610569 -0.381364
vn 0.700807 -0.601718 -0.383150
vn -0.901913 0.134137 0.410561
vn -0.700797 0.601735 0.383144
vn -0.694097 0.610568 0.381361
vn -0.903507 0.124676 0.410037
vn -0.387868 0.877442 0.282230
vn -0.369043 0.887690 0.275342
vn 0.369040 -0.887696 -0.275329
vn 0.387863 -0.877448 -0.282217
vn -0.018490 -0.992619 -0.119856
vn 0.011389 -0.991092 -0.132688
vn -0.011400 0.991089 0.132712
vn 0.018478 0.992616 0.119880
vn -0.460639 -0.883313 0.087006
vn -0.426708 -0.901688 0.069846
vn -0.833203 -0.462075 0.303743
vn -0.818667 -0.493704 0.293327
f 1/1/1 2/2/2 3/3/3
f 1/1/1 3/3/3 4/4/4
f 5/5/5 6/6/6 7/7/7
f 5/5/5 7/7/7 8/8/8
f 5/5/5 1/1/1 9/9/9
f 5/5/5 9/9/9 6/6/6
f 5/5/5 10/10/10 2/2/2
f 5/5/5 2/2/2 1/1/1
f 7/7/7 6/6/6 11/11/11
f 7/7/7 11/11/11 12/12/12
f 13/13/13 14/14/14 15/15/15
f 13/13/13 15/15/15 16/16/16
f 17/17/17 18/18/18 19/19/19
f 17/17/17 19/19/19 20/20/20
f 17/17/17 20/20/20 21/21/21
f 17/17/17 21/21/21 13/13/13
f 17/17/17 13/13/13 16/16/16
f 17/17/17 16/16/16 22/22/22
f 19/19/19 23/23/23 24/24/24
f 19/19/19 24/24/24 20/20/20
f 25/25/25 26/26/26 27/27/27
f 25/25/25 27/27/27 28/28/28
f 26/26/26 29/29/29 30/30/30
f 26/26/26 30/30/30 27/27/27
f 29/29/29 31/31/31 32/32/32
f 29/29/29 32/32/32 30/30/30
f 33/33/33 34/34/34 35/35/35
f 33/33/33 35/35/35 36/36/36
f 34/34/34 37/37/37 38/38/38
f 34/34/34 38/38/38 35/35/35
f 31/31/31 39/39/39 40/40/40
f 31/31/31 40/40/40 32/32/32
f 39/39/39 41/41/41 42/42/42
f 39/39/39 42/42/42 40/40/40
f 37/37/37 43/43/43 44/44/44
f 37/37/37 44/44/44 38/38/38
f 43/43/43 25/25/25 28/28/28
f 43/43/43 28/28/28 44/44/44
f 41/41/41 45/45/45 46/46/46
f 41/41/41 46/46/46 42/42/42
f 45/45/45 47/47/47 48/48/48
f 45/45/45 48/48/48 46/46/46
f 47/47/47 33/33/33 36/36/36
f 47/47/47 36/36/36 48/48/48
