# polySurface23
# 48 vertices, 44 triangles
v -6.096193 60.912342 1.851349
v -6.069047 62.504292 0.227745
v -6.051844 62.943802 -1.819027
v -6.049332 62.112919 -3.740589
v -6.086688 57.811836 -5.319942
v -6.116792 55.494030 -4.554729
v -6.143937 53.902069 -2.931309
v -6.150940 56.171894 2.318573
v -6.126119 58.594547 2.616558
v -6.062045 60.234474 -5.021957
v -6.161139 53.462540 -0.884533
v -6.163652 54.293438 1.037025
v -4.207194 60.891804 1.862759
v -4.160142 62.092216 -3.729164
v -4.162835 62.923088 -1.807602
v -4.179859 62.483585 0.239174
v -4.197679 57.791107 -5.308510
v -4.261751 56.151180 2.330006
v -4.254928 53.881348 -2.919880
v -4.227602 55.473316 -4.543301
v -4.237110 58.573826 2.627987
v -4.173046 60.213936 -5.010548
v -4.274643 54.272713 1.048458
v -4.272140 53.442005 -0.873119
v -4.160142 62.092216 -3.729164
v -6.049332 62.112919 -3.740589
v -6.051844 62.943802 -1.819027
v -4.162835 62.923088 -1.807602
v -6.069047 62.504292 0.227745
v -4.179859 62.483585 0.239174
v -6.096193 60.912342 1.851349
v -4.207194 60.891804 1.862759
v -4.254928 53.881348 -2.919880
v -6.143937 53.902069 -2.931309
v -6.116792 55.494030 -4.554729
v -4.227602 55.473316 -4.543301
v -6.086688 57.811836 -5.319942
v -4.197679 57.791107 -5.308510
v -6.126119 58.594547 2.616558
v -4.237110 58.573826 2.627987
v -6.150940 56.171894 2.318573
v -4.261751 56.151180 2.330006
v -6.062045 60.234474 -5.021957
v -4.173046 60.213936 -5.010548
v -6.163652 54.293438 1.037025
v -4.274643 54.272713 1.048458
v -6.161139 53.462540 -0.884533
v -4.272140 53.442005 -0.873119
vt 0.941753 0.982430
vt 0.951783 0.992470
vt 0.965483 0.996140
vt 0.979183 0.992470
vt 0.992893 0.968730
vt 0.989213 0.955030
vt 0.979183 0.945000
vt 0.941753 0.955030
vt 0.938083 0.968730
vt 0.989213 0.982430
vt 0.965483 0.941330
vt 0.951783 0.945000
vt 0.946123 0.979910
vt 0.976663 0.988090
vt 0.965483 0.991090
vt 0.954303 0.988090
vt 0.987843 0.968730
vt 0.946123 0.957550
vt 0.976663 0.949370
vt 0.984843 0.957550
vt 0.943123 0.968730
vt 0.984843 0.979910
vt 0.954303 0.949370
vt 0.965483 0.946370
vt 0.976663 0.988090
vt 0.979183 0.992470
vt 0.965483 0.996140
vt 0.965483 0.991090
vt 0.951783 0.992470
vt 0.954303 0.988090
vt 0.941753 0.982430
vt 0.946123 0.979910
vt 0.976663 0.949370
vt 0.979183 0.945000
vt 0.989213 0.955030
vt 0.984843 0.957550
vt 0.992893 0.968730
vt 0.987843 0.968730
vt 0.938083 0.968730
vt 0.943123 0.968730
vt 0.941753 0.955030
vt 0.946123 0.957550
vt 0.989213 0.982430
vt 0.984843 0.979910
vt 0.951783 0.945000
vt 0.954303 0.949370
vt 0.965483 0.941330
vt 0.965483 0.946370
vn -0.999922 0.010938 -0.006047
vn -0.999922 0.010911 -0.006044
vn -0.999922 0.010911 -0.006044
vn -0.999922 0.010904 -0.006043
vn -0.999922 0.010933 -0.006046
vn -0.999922 0.010947 -0.006047
vn -0.999922 0.010944 -0.006047
vn -0.999922 0.010948 -0.006048
vn -0.999922 0.010952 -0.006048
vn -0.999922 0.010903 -0.006043
vn -0.999922 0.010909 -0.006044
vn -0.999922 0.010909 -0.006044
vn 0.999922 -0.010920 0.006045
vn 0.999922 -0.010944 0.006047
vn 0.999922 -0.010915 0.006044
vn 0.999922 -0.010915 0.006044
vn 0.999922 -0.010937 0.006047
vn 0.999922 -0.010925 0.006045
vn 0.999922 -0.010951 0.006048
vn 0.999922 -0.010947 0.006048
vn 0.999922 -0.010912 0.006044
vn 0.999922 -0.010947 0.006048
vn 0.999921 -0.010989 0.006052
vn 0.999921 -0.010989 0.006052
vn 0.012258 0.763417 -0.645789
vn 0.012258 0.763424 -0.645782
vn 0.011502 0.995112 -0.098083
vn 0.011502 0.995112 -0.098083
vn 0.006645 0.874887 0.484282
vn 0.006645 0.874882 0.484291
vn 0.000534 0.521369 0.853331
vn 0.000534 0.521382 0.853323
vn -0.006642 -0.874867 -0.484318
vn -0.006642 -0.874865 -0.484322
vn -0.000554 -0.521336 -0.853351
vn -0.000555 -0.521340 -0.853349
vn 0.004940 -0.098145 -0.995160
vn 0.004940 -0.098156 -0.995159
vn -0.004950 0.098138 0.995160
vn -0.004950 0.098128 0.995161
vn -0.009460 -0.344637 0.938689
vn -0.009460 -0.344641 0.938687
vn 0.009437 0.344607 -0.938700
vn 0.009437 0.344620 -0.938695
vn -0.012259 -0.763426 0.645779
vn -0.012259 -0.763429 0.645776
vn -0.011460 -0.995112 0.098082
vn -0.011460 -0.995112 0.098083
f 1/1/1 2/2/2 3/3/3
f 1/1/1 3/3/3 4/4/4
f 5/5/5 6/6/6 7/7/7
f 5/5/5 7/7/7 8/8/8
f 5/5/5 8/8/8 9/9/9
f 5/5/5 9/9/9 1/1/1
f 5/5/5 1/1/1 4/4/4
f 5/5/5 4/4/4 10/10/10
f 7/7/7 11/11/11 12/12/12
f 7/7/7 12/12/12 8/8/8
f 13/13/13 14/14/14 15/15/15
f 13/13/13 15/15/15 16/16/16
f 17/17/17 18/18/18 19/19/19
f 17/17/17 19/19/19 20/20/20
f 17/17/17 13/13/13 21/21/21
f 17/17/17 21/21/21 18/18/18
f 17/17/17 22/22/22 14/14/14
f 17/17/17 14/14/14 13/13/13
f 19/19/19 18/18/18 23/23/23
f 19/19/19 23/23/23 24/24/24
f 25/25/25 26/26/26 27/27/27
f 25/25/25 27/27/27 28/28/28
f 28/28/28 27/27/27 29/29/29
f 28/28/28 29/29/29 30/30/30
f 30/30/30 29/29/29 31/31/31
f 30/30/30 31/31/31 32/32/32
f 33/33/33 34/34/34 35/35/35
f 33/33/33 35/35/35 36/36/36
f 36/36/36 35/35/35 37/37/37
f 36/36/36 37/37/37 38/38/38
f 32/32/32 31/31/31 39/39/39
f 32/32/32 39/39/39 40/40/40
f 40/40/40 39/39/39 41/41/41
f 40/40/40 41/41/41 42/42/42
f 38/38/38 37/37/37 43/43/43
f 38/38/38 43/43/43 44/44/44
f 44/44/44 43/43/43 26/26/26
f 44/44/44 26/26/26 25/25/25
f 42/42/42 41/41/41 45/45/45
f 42/42/42 45/45/45 46/46/46
f 46/46/46 45/45/45 47/47/47
f 46/46/46 47/47/47 48/48/48
f 48/48/48 47/47/47 34/34/34
f 48/48/48 34/34/34 33/33/33
