# polySurface22
# 48 vertices, 44 triangles
v -21.426886 61.079979 1.758652
v -21.399738 62.671936 0.135048
v -21.382538 63.111435 -1.911724
v -21.380024 62.280571 -3.833290
v -21.417385 57.979469 -5.412632
v -21.447489 55.661663 -4.647423
v -21.474638 54.069698 -3.024002
v -21.481638 56.339527 2.225883
v -21.456814 58.762188 2.523865
v -21.392738 60.402122 -5.114655
v -21.491838 53.630188 -0.977226
v -21.494352 54.461063 0.944336
v -19.537886 61.059448 1.770065
v -19.491024 62.260036 -3.821877
v -19.493525 63.090729 -1.900295
v -19.510740 62.651402 0.146461
v -19.528376 57.958748 -5.401203
v -19.592628 56.318810 2.237309
v -19.585627 54.048977 -3.012577
v -19.558479 55.640945 -4.635998
v -19.567804 58.741467 2.535294
v -19.503736 60.381588 -5.103241
v -19.605343 54.440350 0.955761
v -19.602839 53.609646 -0.965816
v -19.491024 62.260036 -3.821877
v -21.380024 62.280571 -3.833290
v -21.382538 63.111435 -1.911724
v -19.493525 63.090729 -1.900295
v -21.399738 62.671936 0.135048
v -19.510740 62.651402 0.146461
v -21.426886 61.079979 1.758652
v -19.537886 61.059448 1.770065
v -19.585627 54.048977 -3.012577
v -21.474638 54.069698 -3.024002
v -21.447489 55.661663 -4.647423
v -19.558479 55.640945 -4.635998
v -21.417385 57.979469 -5.412632
v -19.528376 57.958748 -5.401203
v -21.456814 58.762188 2.523865
v -19.567804 58.741467 2.535294
v -21.481638 56.339527 2.225883
v -19.592628 56.318810 2.237309
v -21.392738 60.402122 -5.114655
v -19.503736 60.381588 -5.103241
v -21.494352 54.461063 0.944336
v -19.605343 54.440350 0.955761
v -21.491838 53.630188 -0.977226
v -19.602839 53.609646 -0.965816
vt 0.946123 0.979910
vt 0.954303 0.988090
vt 0.965483 0.991090
vt 0.976663 0.988090
vt 0.987843 0.968730
vt 0.984843 0.957550
vt 0.976663 0.949370
vt 0.946123 0.957550
vt 0.943123 0.968730
vt 0.984843 0.979910
vt 0.965483 0.946370
vt 0.954303 0.949370
vt 0.941753 0.982430
vt 0.979183 0.992470
vt 0.965483 0.996140
vt 0.951783 0.992470
vt 0.992893 0.968730
vt 0.941753 0.955030
vt 0.979183 0.945000
vt 0.989213 0.955030
vt 0.938083 0.968730
vt 0.989213 0.982430
vt 0.951783 0.945000
vt 0.965483 0.941330
vt 0.979183 0.992470
vt 0.976663 0.988090
vt 0.965483 0.991090
vt 0.965483 0.996140
vt 0.954303 0.988090
vt 0.951783 0.992470
vt 0.946123 0.979910
vt 0.941753 0.982430
vt 0.979183 0.945000
vt 0.976663 0.949370
vt 0.984843 0.957550
vt 0.989213 0.955030
vt 0.987843 0.968730
vt 0.992893 0.968730
vt 0.943123 0.968730
vt 0.938083 0.968730
vt 0.946123 0.957550
vt 0.941753 0.955030
vt 0.984843 0.979910
vt 0.989213 0.982430
vt 0.954303 0.949370
vt 0.951783 0.945000
vt 0.965483 0.946370
vt 0.965483 0.941330
vn -0.999922 0.010940 -0.006047
vn -0.999922 0.010909 -0.006044
vn -0.999922 0.010909 -0.006044
vn -0.999922 0.010905 -0.006043
vn -0.999922 0.010934 -0.006046
vn -0.999922 0.010947 -0.006048
vn -0.999922 0.010943 -0.006047
vn -0.999922 0.010950 -0.006048
vn -0.999922 0.010954 -0.006048
vn -0.999922 0.010905 -0.006043
vn -0.999922 0.010909 -0.006043
vn -0.999922 0.010909 -0.006043
vn 0.999922 -0.010937 0.006046
vn 0.999922 -0.010903 0.006043
vn 0.999922 -0.010912 0.006044
vn 0.999922 -0.010912 0.006044
vn 0.999922 -0.010932 0.006046
vn 0.999922 -0.010947 0.006047
vn 0.999922 -0.010944 0.006047
vn 0.999922 -0.010947 0.006048
vn 0.999922 -0.010951 0.006048
vn 0.999922 -0.010902 0.006043
vn 0.999922 -0.010915 0.006044
vn 0.999922 -0.010915 0.006044
vn 0.012222 0.763425 -0.645781
vn 0.012222 0.763419 -0.645788
vn 0.011456 0.995112 -0.098085
vn 0.011456 0.995112 -0.098084
vn 0.006606 0.874884 0.484288
vn 0.006606 0.874888 0.484281
vn 0.000517 0.521357 0.853339
vn 0.000517 0.521365 0.853334
vn -0.006645 -0.874875 -0.484304
vn -0.006645 -0.874870 -0.484313
vn -0.000557 -0.521335 -0.853352
vn -0.000557 -0.521339 -0.853349
vn 0.004939 -0.098140 -0.995160
vn 0.004939 -0.098145 -0.995160
vn -0.004950 0.098144 0.995160
vn -0.004950 0.098139 0.995160
vn -0.009457 -0.344636 0.938689
vn -0.009458 -0.344641 0.938687
vn 0.009423 0.344592 -0.938705
vn 0.009423 0.344600 -0.938702
vn -0.012256 -0.763433 0.645771
vn -0.012256 -0.763439 0.645763
vn -0.011461 -0.995112 0.098084
vn -0.011461 -0.995112 0.098083
f 1/1/1 2/2/2 3/3/3
f 1/1/1 3/3/3 4/4/4
f 5/5/5 6/6/6 7/7/7
f 5/5/5 7/7/7 8/8/8
f 5/5/5 8/8/8 9/9/9
f 5/5/5 9/9/9 1/1/1
f 5/5/5 1/1/1 4/4/4
f 5/5/5 4/4/4 10/10/10
f 7/7/7 11/11/11 12/12/12
f 7/7/7 12/12/12 8/8/8
f 13/13/13 14/14/14 15/15/15
f 13/13/13 15/15/15 16/16/16
f 17/17/17 18/18/18 19/19/19
f 17/17/17 19/19/19 20/20/20
f 17/17/17 13/13/13 21/21/21
f 17/17/17 21/21/21 18/18/18
f 17/17/17 22/22/22 14/14/14
f 17/17/17 14/14/14 13/13/13
f 19/19/19 18/18/18 23/23/23
f 19/19/19 23/23/23 24/24/24
f 25/25/25 26/26/26 27/27/27
f 25/25/25 27/27/27 28/28/28
f 28/28/28 27/27/27 29/29/29
f 28/28/28 29/29/29 30/30/30
f 30/30/30 29/29/29 31/31/31
f 30/30/30 31/31/31 32/32/32
f 33/33/33 34/34/34 35/35/35
f 33/33/33 35/35/35 36/36/36
f 36/36/36 35/35/35 37/37/37
f 36/36/36 37/37/37 38/38/38
f 32/32/32 31/31/31 39/39/39
f 32/32/32 39/39/39 40/40/40
f 40/40/40 39/39/39 41/41/41
f 40/40/40 41/41/41 42/42/42
f 38/38/38 37/37/37 43/43/43
f 38/38/38 43/43/43 44/44/44
f 44/44/44 43/43/43 26/26/26
f 44/44/44 26/26/26 25/25/25
f 42/42/42 41/41/41 45/45/45
f 42/42/42 45/45/45 46/46/46
f 46/46/46 45/45/45 47/47/47
f 46/46/46 47/47/47 48/48/48
f 48/48/48 47/47/47 34/34/34
f 48/48/48 34/34/34 33/33/33
