# polySurface1
# 48 vertices, 44 triangles
v 35.130707 153.593369 16.690292
v 36.247261 160.659622 15.112167
v 34.342678 158.877228 15.938965
v 33.933857 156.290771 16.516724
v 42.239243 160.245697 13.604202
v 40.713757 150.592834 15.760269
v 45.917618 155.462616 13.500961
v 44.720768 158.160034 13.327377
v 37.612217 151.507690 16.413467
v 39.137695 161.160553 14.257584
v 43.604176 151.093781 14.905685
v 45.508801 152.876175 14.078705
v 34.669308 153.145721 13.447678
v 33.472717 155.843185 13.273956
v 33.881252 158.429596 12.696335
v 35.785976 160.212128 11.869385
v 41.777855 159.798050 10.361588
v 44.259483 157.712540 10.084595
v 45.456306 155.015137 10.258347
v 40.252625 150.145248 12.517502
v 37.151093 151.060104 13.170700
v 38.676395 160.713074 11.014801
v 45.047512 152.428680 10.835922
v 43.142891 150.646286 11.662903
v 35.785976 160.212128 11.869385
v 33.881252 158.429596 12.696335
v 34.342678 158.877228 15.938965
v 36.247261 160.659622 15.112167
v 33.472717 155.843185 13.273956
v 33.933857 156.290771 16.516724
v 34.669308 153.145721 13.447678
v 35.130707 153.593369 16.690292
v 45.456306 155.015137 10.258347
v 44.259483 157.712540 10.084595
v 44.720768 158.160034 13.327377
v 45.917618 155.462616 13.500961
v 41.777855 159.798050 10.361588
v 42.239243 160.245697 13.604202
v 37.151093 151.060104 13.170700
v 37.612217 151.507690 16.413467
v 40.252625 150.145248 12.517502
v 40.713757 150.592834 15.760269
v 38.676395 160.713074 11.014801
v 39.137695 161.160553 14.257584
v 43.142891 150.646286 11.662903
v 43.604176 151.093781 14.905685
v 45.047512 152.428680 10.835922
v 45.508801 152.876175 14.078705
vt 0.875050 0.976270
vt 0.912350 0.986260
vt 0.898700 0.989920
vt 0.885040 0.986260
vt 0.926000 0.962620
vt 0.875050 0.948960
vt 0.912350 0.938970
vt 0.922340 0.948960
vt 0.871390 0.962620
vt 0.922340 0.976270
vt 0.885040 0.938970
vt 0.898700 0.935310
vt 0.869710 0.979350
vt 0.881960 0.991600
vt 0.898700 0.996090
vt 0.915430 0.991600
vt 0.932170 0.962620
vt 0.927680 0.945880
vt 0.915430 0.933630
vt 0.869710 0.945880
vt 0.865230 0.962620
vt 0.927680 0.979350
vt 0.898700 0.929150
vt 0.881960 0.933630
vt 0.915430 0.991600
vt 0.898700 0.996090
vt 0.898700 0.989920
vt 0.912350 0.986260
vt 0.881960 0.991600
vt 0.885040 0.986260
vt 0.869710 0.979350
vt 0.875050 0.976270
vt 0.915430 0.933630
vt 0.927680 0.945880
vt 0.922340 0.948960
vt 0.912350 0.938970
vt 0.932170 0.962620
vt 0.926000 0.962620
vt 0.865230 0.962620
vt 0.871390 0.962620
vt 0.869710 0.945880
vt 0.875050 0.948960
vt 0.927680 0.979350
vt 0.922340 0.976270
vt 0.881960 0.933630
vt 0.885040 0.938970
vt 0.898700 0.929150
vt 0.898700 0.935310
vn 0.251577 0.172930 0.952263
vn 0.251591 0.172910 0.952263
vn 0.251585 0.172926 0.952261
vn 0.251585 0.172926 0.952261
vn 0.251586 0.172925 0.952261
vn 0.251577 0.172938 0.952261
vn 0.251592 0.172934 0.952258
vn 0.251593 0.172931 0.952258
vn 0.251571 0.172938 0.952263
vn 0.251592 0.172908 0.952263
vn 0.251585 0.172960 0.952255
vn 0.251585 0.172960 0.952255
vn -0.251578 -0.172928 -0.952263
vn -0.251591 -0.172930 -0.952259
vn -0.251591 -0.172930 -0.952259
vn -0.251580 -0.172933 -0.952261
vn -0.251582 -0.172933 -0.952261
vn -0.251589 -0.172938 -0.952258
vn -0.251592 -0.172935 -0.952258
vn -0.251582 -0.172928 -0.952262
vn -0.251576 -0.172926 -0.952263
vn -0.251579 -0.172933 -0.952262
vn -0.251617 -0.172906 -0.952257
vn -0.251617 -0.172906 -0.952257
vn -0.427547 0.901752 -0.063622
vn -0.866017 0.497024 0.054599
vn -0.882881 0.465574 0.061337
vn -0.464866 0.883620 -0.055812
vn -0.980538 -0.119272 0.155947
vn -0.979168 -0.128700 0.157054
vn -0.772326 -0.605074 0.193387
vn -0.779241 -0.596220 0.193148
vn 0.979167 0.128704 -0.157055
vn 0.779229 0.596235 -0.193146
vn 0.772319 0.605084 -0.193384
vn 0.980539 0.119264 -0.155948
vn 0.451419 0.872984 -0.184717
vn 0.431465 0.883311 -0.183303
vn -0.431452 -0.883320 0.183291
vn -0.451418 -0.872986 0.184706
vn -0.016738 -0.990146 0.139036
vn -0.048966 -0.988455 0.143386
vn 0.048979 0.988454 -0.143389
vn 0.016762 0.990145 -0.139038
vn 0.464883 -0.883611 0.055817
vn 0.427558 -0.901745 0.063630
vn 0.882874 -0.465586 -0.061343
vn 0.865996 -0.497061 -0.054598
f 1/1/1 2/2/2 3/3/3
f 1/1/1 3/3/3 4/4/4
f 5/5/5 6/6/6 7/7/7
f 5/5/5 7/7/7 8/8/8
f 5/5/5 1/1/1 9/9/9
f 5/5/5 9/9/9 6/6/6
f 5/5/5 10/10/10 2/2/2
f 5/5/5 2/2/2 1/1/1
f 7/7/7 6/6/6 11/11/11
f 7/7/7 11/11/11 12/12/12
f 13/13/13 14/14/14 15/15/15
f 13/13/13 15/15/15 16/16/16
f 17/17/17 18/18/18 19/19/19
f 17/17/17 19/19/19 20/20/20
f 17/17/17 20/20/20 21/21/21
f 17/17/17 21/21/21 13/13/13
f 17/17/17 13/13/13 16/16/16
f 17/17/17 16/16/16 22/22/22
f 19/19/19 23/23/23 24/24/24
f 19/19/19 24/24/24 20/20/20
f 25/25/25 26/26/26 27/27/27
f 25/25/25 27/27/27 28/28/28
f 26/26/26 29/29/29 30/30/30
f 26/26/26 30/30/30 27/27/27
f 29/29/29 31/31/31 32/32/32
f 29/29/29 32/32/32 30/30/30
f 33/33/33 34/34/34 35/35/35
f 33/33/33 35/35/35 36/36/36
f 34/34/34 37/37/37 38/38/38
f 34/34/34 38/38/38 35/35/35
f 31/31/31 39/39/39 40/40/40
f 31/31/31 40/40/40 32/32/32
f 39/39/39 41/41/41 42/42/42
f 39/39/39 42/42/42 40/40/40
f 37/37/37 43/43/43 44/44/44
f 37/37/37 44/44/44 38/38/38
f 43/43/43 25/25/25 28/28/28
f 43/43/43 28/28/28 44/44/44
f 41/41/41 45/45/45 46/46/46
f 41/41/41 46/46/46 42/42/42
f 45/45/45 47/47/47 48/48/48
f 45/45/45 48/48/48 46/46/46
f 47/47/47 33/33/33 36/36/36
f 47/47/47 36/36/36 48/48/48
