# polySurface6
# 50 vertices, 112 triangles
v -3.471543 189.384933 5.816727
v -3.471543 190.130569 6.032700
v -2.944382 189.912262 6.032700
v -2.726066 189.384933 6.032700
v -2.944382 188.857758 6.032700
v -3.471543 188.639435 6.032700
v -3.998705 188.857758 6.032700
v -4.217200 189.384933 6.032700
v -3.998705 189.912262 6.032700
v -3.471543 190.728470 6.490387
v -2.521609 190.335037 6.490387
v -2.127992 189.384933 6.490387
v -2.521609 188.434982 6.490387
v -3.471543 188.041367 6.490387
v -4.421657 188.434982 6.490387
v -4.815094 189.384933 6.490387
v -4.421657 190.335037 6.490387
v -3.471543 191.060364 7.151993
v -2.286915 190.569550 7.151993
v -1.796289 189.384933 7.151993
v -2.286915 188.200287 7.151993
v -3.471543 187.709656 7.151993
v -4.656172 188.200287 7.151993
v -5.146977 189.384933 7.151993
v -4.656172 190.569550 7.151993
v -3.471543 191.060364 7.886322
v -2.286915 190.569550 7.886322
v -1.796289 189.384949 7.886322
v -2.286915 188.200287 7.886322
v -3.471543 187.709656 7.886322
v -4.656172 188.200287 7.886322
v -5.146977 189.384949 7.886322
v -4.656172 190.569550 7.886322
v -3.471543 190.728470 8.547745
v -2.521609 190.335037 8.547745
v -2.127992 189.384933 8.547745
v -2.521609 188.434982 8.547745
v -3.471543 188.041367 8.547745
v -4.421657 188.434982 8.547745
v -4.815094 189.384933 8.547745
v -4.421657 190.335037 8.547745
v -3.471543 190.130569 9.005615
v -2.944382 189.912262 9.005615
v -2.726066 189.384933 9.005615
v -2.944382 188.857758 9.005615
v -3.471543 188.639435 9.005615
v -3.998705 188.857758 9.005615
v -4.217200 189.384933 9.005615
v -3.998705 189.912262 9.005615
v -3.471543 189.384933 9.221588
vt 0.303230 0.903890
vt 0.303230 0.912930
vt 0.296840 0.910290
vt 0.294190 0.903890
vt 0.296840 0.897500
vt 0.303230 0.894860
vt 0.309620 0.897500
vt 0.312270 0.903890
vt 0.309620 0.910290
vt 0.303230 0.920180
vt 0.291710 0.915410
vt 0.286940 0.903890
vt 0.291710 0.892380
vt 0.303230 0.887610
vt 0.314750 0.892380
vt 0.319520 0.903890
vt 0.314750 0.915410
vt 0.303230 0.924200
vt 0.288870 0.918260
vt 0.282920 0.903890
vt 0.288870 0.889530
vt 0.303230 0.883580
vt 0.317590 0.889530
vt 0.323540 0.903890
vt 0.317590 0.918260
vt 0.303230 0.924200
vt 0.288870 0.918260
vt 0.282920 0.903890
vt 0.288870 0.889530
vt 0.303230 0.883580
vt 0.317590 0.889530
vt 0.323540 0.903890
vt 0.317590 0.918260
vt 0.303230 0.920180
vt 0.291710 0.915410
vt 0.286940 0.903890
vt 0.291710 0.892380
vt 0.303230 0.887610
vt 0.314750 0.892380
vt 0.319520 0.903890
vt 0.314750 0.915410
vt 0.303230 0.912930
vt 0.296840 0.910290
vt 0.294190 0.903890
vt 0.296840 0.897500
vt 0.303230 0.894860
vt 0.309620 0.897500
vt 0.312270 0.903890
vt 0.309620 0.910290
vt 0.303230 0.903890
vn -0.000000 0.000000 -0.000000
vn 0.000001 0.551186 -0.834383
vn 0.389753 0.389718 -0.834393
vn 0.551146 -0.000002 -0.834409
vn 0.389737 -0.389730 -0.834395
vn 0.000001 -0.551147 -0.834408
vn -0.389684 -0.389754 -0.834409
vn -0.551142 -0.000004 -0.834412
vn -0.389695 0.389738 -0.834411
vn 0.000001 0.815905 -0.578186
vn 0.576926 0.576926 -0.578198
vn 0.815887 0.000000 -0.578211
vn 0.576917 -0.576909 -0.578225
vn 0.000001 -0.815886 -0.578213
vn -0.576929 -0.576909 -0.578212
vn -0.815879 -0.000001 -0.578223
vn -0.576934 0.576923 -0.578192
vn -0.000000 0.978580 -0.205867
vn 0.692000 0.691920 -0.205871
vn 0.978579 -0.000003 -0.205873
vn 0.691965 -0.691954 -0.205874
vn -0.000000 -0.978578 -0.205878
vn -0.691924 -0.691996 -0.205870
vn -0.978580 -0.000003 -0.205867
vn -0.691959 0.691963 -0.205866
vn -0.000000 0.978576 0.205886
vn 0.691996 0.691919 0.205888
vn 0.978575 0.000004 0.205893
vn 0.691962 -0.691950 0.205896
vn -0.000000 -0.978574 0.205897
vn -0.691922 -0.691993 0.205889
vn -0.978577 0.000005 0.205882
vn -0.691956 0.691961 0.205882
vn -0.000001 0.815876 0.578227
vn 0.576901 0.576905 0.578244
vn 0.815858 -0.000005 0.578253
vn 0.576899 -0.576887 0.578263
vn -0.000000 -0.815857 0.578254
vn -0.576910 -0.576888 0.578252
vn -0.815850 -0.000003 0.578264
vn -0.576912 0.576905 0.578233
vn -0.000002 0.551323 0.834292
vn 0.389844 0.389812 0.834307
vn 0.551279 -0.000005 0.834321
vn 0.389834 -0.389824 0.834306
vn -0.000001 -0.551281 0.834320
vn -0.389780 -0.389850 0.834319
vn -0.551277 -0.000003 0.834322
vn -0.389793 0.389839 0.834318
vn 0.000000 0.000000 0.000000
f 1/1/1 2/2/2 3/3/3
f 1/1/1 3/3/3 1/1/1
f 1/1/1 3/3/3 4/4/4
f 1/1/1 4/4/4 1/1/1
f 1/1/1 4/4/4 5/5/5
f 1/1/1 5/5/5 1/1/1
f 1/1/1 5/5/5 6/6/6
f 1/1/1 6/6/6 1/1/1
f 1/1/1 6/6/6 7/7/7
f 1/1/1 7/7/7 1/1/1
f 1/1/1 7/7/7 8/8/8
f 1/1/1 8/8/8 1/1/1
f 1/1/1 8/8/8 9/9/9
f 1/1/1 9/9/9 1/1/1
f 1/1/1 9/9/9 2/2/2
f 1/1/1 2/2/2 1/1/1
f 2/2/2 10/10/10 11/11/11
f 2/2/2 11/11/11 3/3/3
f 3/3/3 11/11/11 12/12/12
f 3/3/3 12/12/12 4/4/4
f 4/4/4 12/12/12 13/13/13
f 4/4/4 13/13/13 5/5/5
f 5/5/5 13/13/13 14/14/14
f 5/5/5 14/14/14 6/6/6
f 6/6/6 14/14/14 15/15/15
f 6/6/6 15/15/15 7/7/7
f 7/7/7 15/15/15 16/16/16
f 7/7/7 16/16/16 8/8/8
f 8/8/8 16/16/16 17/17/17
f 8/8/8 17/17/17 9/9/9
f 9/9/9 17/17/17 10/10/10
f 9/9/9 10/10/10 2/2/2
f 10/10/10 18/18/18 19/19/19
f 10/10/10 19/19/19 11/11/11
f 11/11/11 19/19/19 20/20/20
f 11/11/11 20/20/20 12/12/12
f 12/12/12 20/20/20 21/21/21
f 12/12/12 21/21/21 13/13/13
f 13/13/13 21/21/21 22/22/22
f 13/13/13 22/22/22 14/14/14
f 14/14/14 22/22/22 23/23/23
f 14/14/14 23/23/23 15/15/15
f 15/15/15 23/23/23 24/24/24
f 15/15/15 24/24/24 16/16/16
f 16/16/16 24/24/24 25/25/25
f 16/16/16 25/25/25 17/17/17
f 17/17/17 25/25/25 18/18/18
f 17/17/17 18/18/18 10/10/10
f 18/18/18 26/26/26 27/27/27
f 18/18/18 27/27/27 19/19/19
f 19/19/19 27/27/27 28/28/28
f 19/19/19 28/28/28 20/20/20
f 20/20/20 28/28/28 29/29/29
f 20/20/20 29/29/29 21/21/21
f 21/21/21 29/29/29 30/30/30
f 21/21/21 30/30/30 22/22/22
f 22/22/22 30/30/30 31/31/31
f 22/22/22 31/31/31 23/23/23
f 23/23/23 31/31/31 32/32/32
f 23/23/23 32/32/32 24/24/24
f 24/24/24 32/32/32 33/33/33
f 24/24/24 33/33/33 25/25/25
f 25/25/25 33/33/33 26/26/26
f 25/25/25 26/26/26 18/18/18
f 26/26/26 34/34/34 35/35/35
f 26/26/26 35/35/35 27/27/27
f 27/27/27 35/35/35 36/36/36
f 27/27/27 36/36/36 28/28/28
f 28/28/28 36/36/36 37/37/37
f 28/28/28 37/37/37 29/29/29
f 29/29/29 37/37/37 38/38/38
f 29/29/29 38/38/38 30/30/30
f 30/30/30 38/38/38 39/39/39
f 30/30/30 39/39/39 31/31/31
f 31/31/31 39/39/39 40/40/40
f 31/31/31 40/40/40 32/32/32
f 32/32/32 40/40/40 41/41/41
f 32/32/32 41/41/41 33/33/33
f 33/33/33 41/41/41 34/34/34
f 33/33/33 34/34/34 26/26/26
f 34/34/34 42/42/42 43/43/43
f 34/34/34 43/43/43 35/35/35
f 35/35/35 43/43/43 44/44/44
f 35/35/35 44/44/44 36/36/36
f 36/36/36 44/44/44 45/45/45
f 36/36/36 45/45/45 37/37/37
f 37/37/37 45/45/45 46/46/46
f 37/37/37 46/46/46 38/38/38
f 38/38/38 46/46/46 47/47/47
f 38/38/38 47/47/47 39/39/39
f 39/39/39 47/47/47 48/48/48
f 39/39/39 48/48/48 40/40/40
f 40/40/40 48/48/48 49/49/49
f 40/40/40 49/49/49 41/41/41
f 41/41/41 49/49/49 42/42/42
f 41/41/41 42/42/42 34/34/34
f 42/42/42 50/50/50 50/50/50
f 42/42/42 50/50/50 43/43/43
f 43/43/43 50/50/50 50/50/50
f 43/43/43 50/50/50 44/44/44
f 44/44/44 50/50/50 50/50/50
f 44/44/44 50/50/50 45/45/45
f 45/45/45 50/50/50 50/50/50
f 45/45/45 50/50/50 46/46/46
f 46/46/46 50/50/50 50/50/50
f 46/46/46 50/50/50 47/47/47
f 47/47/47 50/50/50 50/50/50
f 47/47/47 50/50/50 48/48/48
f 48/48/48 50/50/50 50/50/50
f 48/48/48 50/50/50 49/49/49
f 49/49/49 50/50/50 50/50/50
f 49/49/49 50/50/50 42/42/42
